# xmcd CD database file
#
# Track frame offsets:
#	150
#	13570
#	25272
#	38227
#	54575
#	63990
#	79285
#	116220
#	131062
#	147525
#	163407
#	181225
#
# Disc length: 2629 seconds
#
# Revision: 3
# Processed by: cddbd v1.4PL0 Copyright (c) Steve Scherf et al.
# Submitted via: CDex 1.51
#
DISCID=ae0a430c
DTITLE=Joseph Minor - Nuevas Instrumentales de Colección Vol. 4
DYEAR=1998
DGENRE=Instrumental
TTITLE0=San Luís Blues
TTITLE1=Nocturno de Harlem
TTITLE2=Laguna soñadora
TTITLE3=Al sur de la frontera
TTITLE4=Bailemos
TTITLE5=De buen humor
TTITLE6=Dejé mi corazón en San Francisco
TTITLE7=La calle 12
TTITLE8=Todo lo que tú eres
TTITLE9=El continental
TTITLE10=Que será será
TTITLE11=Serenata en azul
EXTD=YEAR: 1998
EXTT0=
EXTT1=
EXTT2=
EXTT3=
EXTT4=
EXTT5=
EXTT6=
EXTT7=
EXTT8=
EXTT9=
EXTT10=
EXTT11=
PLAYORDER=
